<?xml version="1.0" standalone="no"?>
<!DOCTYPE svg PUBLIC "-//W3C//DTD SVG 20010904//EN"
 "http://www.w3.org/TR/2001/REC-SVG-20010904/DTD/svg10.dtd">
<svg version="1.0" xmlns="http://www.w3.org/2000/svg"
 width="1024.000000pt" height="1024.000000pt" viewBox="0 0 1024.000000 1024.000000"
 preserveAspectRatio="xMidYMid meet">

<g transform="translate(0.000000,1024.000000) scale(0.100000,-0.100000)"
fill="#000000" stroke="none">
<path d="M2451 9740 c-390 -144 -825 -807 -858 -1307 -10 -141 25 -292 80
-351 33 -35 91 -62 135 -62 44 0 139 30 186 59 75 47 330 47 568 1 93 -18 285
-78 337 -105 l25 -13 -31 -15 c-50 -26 -93 -67 -108 -103 -9 -21 -21 -34 -33
-34 -38 0 -108 -56 -133 -106 -14 -27 -39 -68 -56 -92 -18 -24 -37 -58 -42
-75 -6 -18 -21 -37 -32 -42 -12 -6 -33 -30 -47 -55 -23 -40 -26 -56 -25 -135
1 -113 28 -189 118 -330 l64 -101 -9 -94 c-11 -109 -21 -147 -49 -193 -71
-116 -89 -539 -36 -849 49 -279 158 -505 318 -655 l56 -53 -93 0 c-51 0 -181
3 -289 7 l-197 6 0 708 0 708 55 16 c46 13 55 19 55 38 0 12 16 56 36 97 45
93 57 189 29 220 -10 11 -23 20 -30 20 -6 0 -58 -15 -116 -34 -246 -79 -333
-106 -345 -106 -12 0 -14 -268 -14 -1692 0 -1035 4 -1738 10 -1808 31 -359
139 -663 326 -917 68 -92 220 -250 343 -357 328 -284 818 -592 1641 -1031 173
-93 333 -178 355 -190 22 -12 138 -72 258 -134 185 -96 223 -112 250 -107 63
12 580 276 1082 553 331 183 361 200 595 341 1047 628 1410 1081 1470 1836 6
81 10 752 10 1821 l0 1692 -77 26 c-43 14 -292 99 -553 187 -639 217 -1363
460 -1371 460 -10 0 -49 -120 -49 -151 0 -26 9 -31 208 -109 321 -127 443
-193 553 -297 55 -52 56 -53 360 -157 167 -57 367 -126 445 -152 l141 -49 6
-140 c4 -77 7 -400 7 -717 l0 -578 -62 0 c-35 0 -86 3 -114 6 l-50 6 -18 74
c-58 252 -202 614 -416 1049 -236 479 -340 615 -560 725 -80 40 -158 73 -414
176 -87 35 -165 69 -173 75 -18 16 -17 116 3 170 63 177 59 561 -11 903 -68
340 -151 522 -320 704 -182 197 -459 333 -610 302 -129 -27 -327 -156 -438
-284 -75 -87 -142 -190 -187 -285 -19 -41 -72 -150 -118 -244 -108 -221 -132
-308 -132 -477 0 -134 17 -272 50 -399 11 -44 20 -84 20 -89 0 -6 -57 -24
-127 -41 -272 -66 -603 -158 -685 -190 -46 -18 -139 -196 -182 -349 -10 -35
-16 -65 -14 -67 5 -5 150 42 328 107 280 102 510 175 635 202 66 15 130 29
141 31 16 3 23 -1 27 -15 4 -17 0 -20 -26 -20 -18 0 -80 -11 -138 -24 -355
-81 -515 -176 -762 -455 -103 -115 -198 -201 -223 -201 -8 0 -14 10 -14 23 -1
12 -17 67 -36 122 -29 83 -36 117 -38 195 -2 72 -8 106 -24 140 -12 25 -22 51
-22 58 0 6 30 40 66 74 130 123 223 301 232 444 l5 82 47 5 c25 3 63 13 82 23
34 16 39 16 77 0 89 -35 163 -15 246 69 97 97 141 209 133 343 -5 82 -16 109
-73 172 -18 19 -37 54 -44 77 -6 23 -23 56 -37 73 -31 36 -343 225 -532 322
-143 73 -229 136 -361 262 -143 139 -242 275 -333 460 -44 92 -48 105 -48 174
0 89 -22 145 -72 182 -45 33 -133 38 -207 10z m121 -127 c10 -9 18 -23 18 -33
0 -13 -10 -15 -62 -12 -54 3 -71 -1 -115 -25 -177 -95 -380 -338 -506 -603
-101 -211 -140 -357 -140 -515 0 -112 2 -122 60 -252 9 -21 -52 -15 -71 6 -37
40 -56 117 -56 222 0 116 18 213 65 355 142 429 519 873 739 874 32 0 56 -6
68 -17z m195 -463 c111 -170 271 -335 468 -483 138 -103 135 -100 135 -183 0
-75 -27 -171 -54 -193 -10 -9 -49 9 -167 76 -85 47 -244 135 -354 195 l-200
108 -15 -22 c-71 -106 -169 -224 -232 -280 -74 -66 -113 -91 -70 -45 44 46
172 234 232 339 90 156 167 365 195 532 3 21 8 36 10 34 2 -2 26 -37 52 -78z
m2684 -132 c41 -21 85 -47 99 -59 l25 -21 -25 7 c-39 10 -190 27 -208 23 -11
-2 -2 -12 28 -30 68 -39 115 -84 164 -152 52 -73 120 -195 113 -202 -2 -3 -29
6 -60 20 -156 69 -373 80 -528 27 l-54 -18 115 -6 c248 -12 489 -117 628 -273
62 -69 124 -192 147 -293 23 -97 23 -311 1 -438 -62 -349 -188 -560 -482 -805
-65 -54 -98 -90 -114 -123 l-23 -47 10 -350 c9 -325 8 -377 -12 -450 -6 -23
-2 -33 25 -58 40 -37 54 -37 86 -3 21 23 24 33 18 58 -5 16 -8 165 -7 330 1
249 5 314 20 384 17 79 20 85 48 93 231 67 374 140 494 253 l54 50 -7 -34
c-11 -61 -98 -158 -293 -328 -82 -72 -138 -151 -167 -237 -36 -107 -26 -584
21 -984 9 -78 14 -145 11 -148 -15 -14 -323 52 -473 102 -258 85 -559 283
-674 443 -25 33 -46 60 -47 58 -5 -5 35 -194 60 -277 38 -132 91 -249 167
-371 38 -61 69 -113 69 -115 0 -2 -89 -4 -199 -4 l-198 0 -16 78 c-58 271 -78
519 -86 1047 l-6 440 -37 -110 c-44 -130 -73 -267 -89 -425 -14 -140 -19 -158
-30 -100 -10 51 -34 242 -44 343 -6 62 -8 67 -20 50 -41 -59 -140 -280 -185
-415 l-23 -68 -69 65 c-39 36 -73 65 -77 65 -3 0 -6 -39 -6 -87 0 -76 -4 -95
-27 -138 -31 -58 -63 -101 -54 -73 3 10 10 66 16 125 13 124 1 210 -44 302
l-25 53 137 156 c323 371 375 425 463 482 96 62 252 113 426 139 112 17 114
17 153 -41 38 -56 114 -124 200 -177 30 -19 56 -35 57 -36 1 0 -7 -31 -18 -69
-32 -117 -49 -262 -56 -469 -5 -147 -10 -200 -20 -208 -22 -19 -15 -57 16 -91
29 -32 31 -32 57 -18 15 8 36 27 47 42 19 26 19 28 2 64 -16 34 -17 57 -11
222 3 101 11 215 16 254 14 95 40 208 49 208 13 0 130 -105 156 -139 14 -19
25 -48 25 -65 0 -59 17 -10 27 76 15 123 47 185 142 273 202 188 276 273 351
405 161 285 220 728 123 925 -74 150 -191 247 -378 312 -75 25 -91 27 -245 28
-153 0 -171 -2 -250 -27 -108 -35 -198 -88 -269 -159 -103 -102 -139 -207
-128 -367 24 -338 230 -785 483 -1051 74 -78 84 -93 84 -125 0 -20 -4 -36 -9
-36 -18 0 -192 193 -259 287 -197 278 -302 517 -347 790 -40 242 9 449 138
589 36 39 62 79 73 110 116 342 377 591 610 582 58 -3 83 -10 145 -40z m-3185
-50 c-8 -45 -87 -199 -108 -212 -13 -8 -21 -7 -29 1 -9 9 -1 32 30 96 60 126
122 191 107 115z m223 -25 c15 -11 -150 -333 -171 -333 -8 0 -119 62 -137 77
-3 2 5 10 17 19 71 49 130 151 139 237 l6 55 71 -26 c39 -14 73 -27 75 -29z
m1009 -454 c70 -27 201 -99 331 -184 97 -63 111 -78 111 -119 0 -39 -36 -162
-50 -171 -5 -3 -29 5 -52 18 -76 43 -380 199 -382 195 -30 -55 -93 -130 -141
-168 -35 -28 -66 -50 -69 -50 -3 0 13 24 38 54 66 82 104 140 139 214 27 57
32 82 36 167 3 55 7 90 9 77 2 -14 14 -27 30 -33z m555 -455 c6 -35 -10 -101
-35 -142 -21 -34 -67 -82 -79 -82 -4 0 11 35 32 78 21 42 44 98 50 125 14 53
24 60 32 21z m1180 -28 c117 -56 151 -62 243 -44 52 10 85 12 97 6 22 -11 57
-89 57 -125 l0 -26 -122 6 c-92 4 -145 12 -213 32 -49 15 -124 30 -165 32 -65
5 -83 2 -134 -21 -75 -33 -162 -56 -215 -56 l-41 0 0 40 c0 21 7 55 16 74 l17
34 96 4 c87 4 103 8 166 41 39 20 83 36 98 37 15 0 60 -16 100 -34z m-2136
-145 c63 -41 103 -78 103 -95 0 -6 -24 -23 -54 -37 l-55 -26 -30 24 c-34 27
-131 63 -168 63 -20 0 -24 5 -21 23 2 16 20 31 68 54 36 18 72 32 81 32 9 1
43 -16 76 -38z m1945 -123 c-4 -18 -7 -114 -6 -213 1 -203 15 -278 79 -414 20
-41 34 -76 32 -78 -9 -8 -148 100 -186 144 -85 100 -157 282 -176 449 l-7 61
39 15 c21 9 76 25 123 37 47 13 87 24 89 27 13 13 20 0 13 -28z m-2192 12 c0
-5 6 -10 13 -10 6 0 51 -23 100 -51 79 -46 87 -53 87 -80 0 -38 14 -65 53
-106 30 -32 30 -33 12 -53 -10 -11 -22 -20 -26 -20 -5 0 -37 25 -71 56 -69 62
-166 114 -213 114 l-29 0 24 -16 c41 -27 170 -157 186 -186 43 -81 -17 -148
-67 -75 -33 46 -58 67 -114 93 -45 22 -124 34 -100 16 6 -4 49 -48 98 -98 75
-79 87 -96 87 -126 0 -53 -34 -75 -69 -44 -20 17 -202 118 -206 114 -10 -10
20 -109 50 -167 58 -110 80 -130 153 -142 110 -17 168 15 223 124 12 23 43 65
68 92 26 28 72 89 103 136 31 47 72 97 91 112 38 29 67 81 67 120 l0 26 -57
-20 c-79 -27 -124 -25 -154 7 -22 23 -23 27 -8 52 18 32 145 99 205 108 57 8
76 -13 93 -102 17 -88 4 -160 -44 -262 -62 -132 -151 -230 -259 -286 -40 -21
-65 -43 -86 -76 -16 -25 -41 -57 -55 -70 -14 -13 -25 -28 -25 -34 0 -6 -5 -27
-10 -47 -18 -64 -76 -72 -197 -27 -42 15 -53 24 -53 41 -1 30 -31 94 -73 154
-118 169 -149 335 -78 423 17 22 31 46 31 55 0 25 27 71 55 93 14 11 25 28 25
37 0 35 39 81 77 93 21 6 47 18 58 26 24 18 35 20 35 6z m-41 -1071 c66 -17
91 -19 122 -11 51 13 50 -1 -2 -18 -22 -8 -42 -17 -44 -21 -3 -3 3 -39 13 -78
l18 -71 -50 -1 c-54 -1 -102 -6 -125 -15 -11 -3 -10 -9 5 -26 26 -29 92 -58
135 -58 20 0 38 -2 41 -5 3 -3 -10 -43 -28 -88 -55 -137 -68 -211 -67 -397 0
-167 17 -289 59 -425 22 -68 73 -194 91 -222 29 -44 -3 -23 -57 38 -135 150
-216 333 -272 609 -20 100 -23 145 -23 335 0 219 0 220 27 275 15 30 35 88 44
128 9 39 19 72 23 72 4 0 44 -9 90 -21z m3917 -56 c-80 -114 -111 -198 -171
-468 -38 -174 -58 -305 -68 -460 l-2 -40 -18 55 c-35 110 -50 228 -43 355 10
210 65 365 170 482 51 55 137 123 158 123 4 0 -7 -21 -26 -47z m59 -399 c12
-85 74 -318 108 -414 75 -206 143 -328 235 -422 34 -35 50 -58 41 -58 -34 0
-173 41 -210 62 -46 25 -49 35 -13 40 24 3 18 8 -48 51 -90 56 -150 112 -176
164 -45 88 -63 249 -42 364 11 61 81 259 91 259 4 0 10 -21 14 -46z m-2742
-981 c3 -109 5 -199 3 -200 -1 -1 -163 -5 -361 -9 -220 -4 -356 -3 -350 3 6 5
35 17 65 27 63 21 244 112 340 169 87 53 219 149 249 181 45 48 48 40 54 -171z
m2649 -59 c14 -38 29 -86 33 -106 l7 -38 -56 0 c-53 0 -56 1 -52 23 3 12 8 62
11 110 5 60 11 87 18 84 7 -2 24 -35 39 -73z m-1890 -676 c32 -156 89 -436
127 -623 129 -634 191 -944 191 -959 0 -14 -25 -16 -193 -16 l-194 0 -16 78
c-9 42 -24 119 -34 170 l-17 92 -212 0 -212 0 -10 -47 c-6 -27 -20 -103 -33
-169 l-22 -121 -194 -8 c-107 -4 -197 -4 -200 -1 -4 3 4 52 16 109 79 363 153
738 236 1192 8 44 35 190 60 324 25 134 45 248 45 252 0 5 136 9 303 9 l302 0
57 -282z m-1452 262 c125 -24 218 -89 262 -185 21 -46 23 -66 26 -257 l3 -208
-58 0 c-32 0 -115 -3 -185 -7 l-128 -6 0 130 c0 141 -9 184 -45 207 -35 23
-114 30 -193 16 -56 -9 -75 -17 -98 -41 l-29 -30 -3 -562 c-2 -543 -2 -563 17
-594 24 -39 68 -53 166 -53 162 0 185 26 185 208 0 67 3 122 8 122 4 0 75 7
157 15 83 8 163 15 178 15 l29 0 -4 -207 c-3 -202 -4 -209 -30 -258 -55 -105
-154 -168 -303 -194 -111 -20 -391 -31 -473 -20 -172 23 -277 117 -311 277 -7
36 -11 253 -11 675 0 673 0 679 54 786 35 69 111 133 188 159 57 19 86 21 304
22 133 0 265 -4 294 -10z m2855 -18 c80 -30 162 -87 192 -135 57 -90 57 -95
58 -462 0 -387 -2 -398 -78 -495 -86 -109 -191 -140 -478 -140 l-179 0 -2
-305 -3 -306 -195 0 -195 0 -3 936 -2 936 412 -3 c399 -3 415 -4 473 -26z
m1418 -1 c66 -26 144 -97 176 -159 50 -99 52 -125 49 -820 l-3 -647 -29 -63
c-41 -88 -115 -155 -204 -183 -54 -17 -92 -21 -197 -21 -170 1 -378 18 -446
38 -116 34 -209 109 -253 203 -21 46 -21 52 -21 731 l0 685 33 67 c37 76 89
124 167 158 82 35 118 39 400 36 255 -2 273 -3 328 -25z m-3752 -2111 c64 -12
117 -52 135 -101 16 -44 19 -477 3 -534 -23 -85 -81 -116 -214 -118 -139 -1
-213 34 -235 112 -14 49 -13 476 1 526 6 22 18 48 27 59 49 54 168 78 283 56z
m2184 -15 c36 -15 70 -50 84 -88 15 -38 14 -479 0 -532 -6 -21 -26 -54 -44
-72 l-33 -33 41 -46 c36 -41 39 -47 23 -56 -9 -5 -32 -23 -50 -39 -19 -16 -36
-29 -39 -29 -3 0 -31 33 -62 73 l-56 72 -72 12 c-79 14 -112 33 -142 84 -19
32 -20 52 -20 294 0 243 1 262 20 295 24 41 73 71 130 81 53 10 182 0 220 -16z
m-2745 -7 c66 -35 82 -72 78 -190 -3 -91 -5 -99 -32 -126 l-28 -30 22 -12 c34
-18 50 -70 50 -167 0 -111 -17 -149 -80 -180 -40 -21 -58 -23 -207 -23 l-163
0 0 375 0 375 158 0 c144 0 162 -2 202 -22z m1020 -276 c0 -218 3 -301 12
-310 16 -16 100 -16 116 0 9 9 12 92 12 310 l0 298 80 0 80 0 0 -292 c0 -165
-5 -313 -11 -338 -12 -54 -49 -95 -98 -111 -46 -16 -196 -16 -242 0 -47 15
-84 56 -98 106 -7 25 -11 155 -11 338 l0 297 80 0 80 0 0 -298z m900 228 l0
-70 -75 0 -75 0 0 -305 0 -305 -80 0 -80 0 0 305 0 305 -75 0 -75 0 0 70 0 70
230 0 230 0 0 -70z m290 -305 l0 -375 -80 0 -80 0 0 375 0 375 80 0 80 0 0
-375z m950 84 c0 -181 4 -298 10 -310 8 -15 21 -19 58 -19 27 0 53 5 60 12 9
9 12 92 12 310 l0 298 80 0 80 0 0 -315 c0 -299 -1 -318 -21 -356 -30 -59 -86
-81 -203 -82 -50 -1 -107 5 -127 11 -48 16 -89 61 -100 108 -4 22 -9 173 -9
337 l0 297 80 0 80 0 0 -291z m858 224 l-3 -68 -117 -3 -118 -3 0 -84 0 -85
100 0 100 0 0 -65 0 -65 -100 0 -100 0 0 -85 0 -85 120 0 120 0 0 -70 0 -70
-200 0 -200 0 0 375 0 375 200 0 201 0 -3 -67z"/>
<path d="M4447 4330 c-4 -14 -20 -99 -37 -190 -17 -91 -48 -254 -69 -362 l-37
-198 151 0 152 0 -38 193 c-104 526 -116 582 -122 557z"/>
<path d="M5720 4145 l0 -318 123 5 c99 4 130 9 164 27 73 37 78 56 78 286 0
183 -2 203 -20 235 -33 56 -79 72 -222 78 l-123 5 0 -318z"/>
<path d="M7174 4459 c-36 -7 -60 -19 -80 -40 l-29 -30 -3 -517 c-2 -284 0
-536 3 -560 9 -62 46 -98 120 -117 69 -18 194 -20 228 -4 52 23 52 24 55 610
3 599 2 608 -53 641 -38 21 -170 31 -241 17z"/>
<path d="M3722 2498 c-17 -17 -17 -449 0 -466 7 -7 35 -12 63 -12 28 0 56 5
63 12 17 17 17 449 0 466 -7 7 -35 12 -63 12 -28 0 -56 -5 -63 -12z"/>
<path d="M5850 2491 c-16 -30 -13 -433 3 -455 15 -21 99 -25 122 -6 12 10 15
52 15 234 0 159 -3 225 -12 234 -7 7 -36 12 -65 12 -41 0 -54 -4 -63 -19z"/>
<path d="M3110 2420 l0 -81 58 3 57 3 0 75 0 75 -57 3 -58 3 0 -81z"/>
<path d="M3110 2120 l0 -91 63 3 62 3 0 85 0 85 -62 3 -63 3 0 -91z"/>
</g>
</svg>
