<svg width="2254" height="1983" viewBox="0 0 2254 1983" fill="none" xmlns="http://www.w3.org/2000/svg">
<path d="M1389.15 195.121C1313.46 279.669 1262.33 249.177 1253.71 116.122C1204.04 240.167 1125.12 187.192 1091.01 0.00585938C1056.9 187.192 977.974 240.167 928.311 116.122C919.763 249.177 868.556 279.669 792.868 195.121C832.059 299.146 820.899 385.313 775.004 414.031C868.175 360.669 975.974 330.101 1091.01 330.101C1206.05 330.101 1313.92 360.669 1407.01 414.031C1361.12 385.388 1349.8 299.146 1389.15 195.121ZM955.335 288.98C944.476 288.98 935.778 280.201 935.778 269.422C935.778 258.644 944.482 249.865 955.335 249.865C966.114 249.865 974.893 258.644 974.893 269.422C974.887 280.207 966.114 288.98 955.335 288.98ZM1091 288.98C1085.15 255.309 1073.06 243.01 1044.5 235.422C1073.06 227.903 1085.15 215.529 1091 181.933C1096.93 215.529 1108.94 227.903 1137.59 235.422C1108.95 243.016 1096.93 255.315 1091 288.98ZM1226.76 288.98C1215.98 288.98 1207.2 280.201 1207.2 269.422C1207.2 258.644 1215.98 249.865 1226.76 249.865C1237.54 249.865 1246.32 258.644 1246.32 269.422C1246.32 280.207 1237.54 288.98 1226.76 288.98Z" fill="url(#paint0_linear_427_475)"/>
<path d="M1062.39 1293.8C1089.16 1263.7 1076.05 1211.06 1029.11 1190.77C981.965 1170.37 925.251 1185.09 900.839 1183.22C872.271 1181.01 857.706 1162.05 861.469 1140.5C864.457 1123.43 875.796 1085.38 878.351 1067.08C881.287 1045.87 866.647 1034.85 868.722 1019.11C870.034 1009.27 879.056 1003.9 889.817 1001.38C878.75 995.903 871.519 987.829 874.548 973.964C878.778 954.909 902.156 934.565 904.942 916.765C909.641 886.792 878.588 870.078 884.997 847.081C891.701 823.189 955.258 819.976 1003.78 793.367C1054.58 765.556 1029.39 678.679 1095.43 606.88C1063.29 677.211 1069.33 761.007 1114.33 862.287C1135.79 910.384 1186.78 990.314 1199.44 1052.85C1217.7 1142.69 1184.65 1251.69 1062.39 1293.8Z" fill="url(#paint1_linear_427_475)"/>
<path d="M1276.98 1327.42C1476.47 977.01 1068.13 830.876 1155.65 576.717C1161.69 680.933 1293.42 784.345 1370.74 904.171C1482.19 1076.8 1444.59 1229.21 1276.98 1327.42Z" fill="url(#paint2_linear_427_475)"/>
<path d="M1656.23 1053.89C1627.53 1237.07 1513.8 1385.89 1361.55 1466.23C1519.97 1339.54 1583.43 1161.42 1572.21 993.725C1572.22 993.649 1572.22 993.649 1572.23 993.574C1567.14 916.632 1546.29 841.817 1511.74 775.295C1442.5 642.158 1319.27 541.249 1183.41 506.479C1099.78 485.112 1011.3 488.707 927.789 525.268C1074.04 447.956 1258.84 432.484 1434.75 519.518C1443.43 523.76 1452 528.302 1460.61 533.076L1460.76 533.099C1607.47 656.237 1688.05 850.85 1656.23 1053.89Z" fill="url(#paint3_linear_427_475)"/>
<path d="M1361.55 1466.23C1361.46 1466.29 1361.46 1466.29 1361.37 1466.35C1257.46 1521.16 1135.62 1544.23 1010.56 1524.63C952.895 1515.6 898.672 1498.05 848.795 1473.64C1133.85 1581.9 1386.32 1411.11 1503.49 1206.02C1543.54 1135.99 1567.83 1062.01 1572.21 993.725C1583.42 1161.41 1519.97 1339.54 1361.55 1466.23Z" fill="url(#paint4_linear_427_475)"/>
<path d="M1460.61 533.077C1277.06 431.133 1081.18 444.166 927.791 525.269C864.904 558.518 809.109 603.24 764.266 656.146C607.607 841.176 583.969 1125.85 755.782 1292.28C638.718 1204.73 516.806 1045.65 539.173 884.002C539.357 882.314 539.618 880.644 539.883 878.968C547.645 829.444 561.632 782.456 580.889 738.63C681.533 509.67 926.756 367.743 1185.48 408.281C1290.68 424.77 1384.57 469.254 1460.61 533.077Z" fill="url(#paint5_linear_427_475)"/>
<path d="M1029.85 1456.94C903.677 1482.1 725.588 1414.59 641.502 1299.25C557.278 1183.67 516.608 1036.34 539.142 883.972C516.81 1045.62 638.699 1204.7 755.792 1292.3C792.41 1319.68 828.509 1340.08 859.643 1351.4C1014.07 1407.57 1194.3 1393.78 1255.03 1210.2C1245.56 1358.23 1142.27 1434.5 1029.85 1456.94Z" fill="url(#paint6_linear_427_475)"/>
<path d="M1062.39 1293.8C1154.9 1220.08 1148.69 1093.23 1098.72 964.03C1050.83 840.21 1028.09 686.961 1095.43 606.869C1063.29 677.199 1069.33 760.996 1114.34 862.276C1135.8 910.373 1186.79 990.303 1199.44 1052.84C1217.71 1142.69 1184.65 1251.69 1062.39 1293.8Z" fill="url(#paint7_linear_427_475)"/>
<path d="M1276.98 1327.42C1476.47 977.01 1068.13 830.876 1155.65 576.717C1108.89 765.718 1595.12 1049.46 1276.98 1327.42Z" fill="url(#paint8_linear_427_475)"/>
<path d="M1434.76 519.512C1375.87 494.464 1276.79 483.616 1183.42 506.474C1099.78 485.107 1011.31 488.702 927.799 525.263C1074.04 447.951 1258.84 432.485 1434.76 519.512Z" fill="url(#paint9_linear_427_475)"/>
<path d="M1361.54 1466.23C1414.4 1422.83 1476.09 1317.15 1503.48 1206.02C1543.53 1135.99 1567.82 1062.01 1572.21 993.725C1583.42 1161.41 1519.97 1339.54 1361.54 1466.23Z" fill="url(#paint10_linear_427_475)"/>
<path d="M755.782 1292.28C638.718 1204.73 516.806 1045.65 539.173 884.002C539.357 882.314 539.618 880.644 539.883 878.968C547.645 829.443 561.632 782.456 580.889 738.63C560.863 1006.72 649.411 1208.12 755.782 1292.28Z" fill="url(#paint11_linear_427_475)"/>
<path d="M928.304 116.116C939.47 305.227 851.304 300.534 792.861 195.116C868.555 279.664 919.756 249.172 928.304 116.116Z" fill="url(#paint12_linear_427_475)"/>
<path d="M1091 0C1065.29 234.231 964.342 270.041 928.307 116.116C977.97 240.167 1056.89 187.186 1091 0Z" fill="url(#paint13_linear_427_475)"/>
<path d="M1253.7 116.116C1242.54 305.227 1330.7 300.534 1389.15 195.116C1313.45 279.664 1262.25 249.172 1253.7 116.116Z" fill="url(#paint14_linear_427_475)"/>
<path d="M1091 0C1116.72 234.231 1217.67 270.041 1253.7 116.116C1204.04 240.167 1125.12 187.186 1091 0Z" fill="url(#paint15_linear_427_475)"/>
<path d="M60.6 1655.02V1865.02H41.1V1655.02H60.6ZM141.6 1855.72V1865.02H59.7V1855.72H141.6ZM128.7 1757.02V1766.02H59.7V1757.02H128.7ZM141.6 1655.02V1664.32H59.7V1655.02H141.6ZM159.9 1816.42L142.5 1865.02H92.7L103.5 1855.72C114.1 1855.72 122.7 1854.12 129.3 1850.92C136.1 1847.52 141.6 1842.82 145.8 1836.82C150 1830.82 153.7 1824.02 156.9 1816.42H159.9ZM128.7 1765.42V1785.22H125.7V1780.72C125.7 1776.72 124.3 1773.32 121.5 1770.52C118.7 1767.52 115.3 1766.02 111.3 1766.02V1765.42H128.7ZM128.7 1737.82V1757.62H111.3V1757.02C115.3 1756.82 118.7 1755.32 121.5 1752.52C124.3 1749.52 125.7 1746.02 125.7 1742.02V1737.82H128.7ZM141.6 1663.42V1687.42H138.6V1682.02C138.6 1677.22 136.9 1673.12 133.5 1669.72C130.1 1666.12 125.9 1664.22 120.9 1664.02V1663.42H141.6ZM141.6 1649.62V1658.32L105 1655.02C109.4 1655.02 114 1654.72 118.8 1654.12C123.8 1653.52 128.4 1652.82 132.6 1652.02C136.8 1651.22 139.8 1650.42 141.6 1649.62ZM42 1843.12V1865.02H18V1862.02C18 1862.02 18.6 1862.02 19.8 1862.02C21.2 1862.02 21.9 1862.02 21.9 1862.02C27.1 1862.02 31.5 1860.22 35.1 1856.62C38.9 1852.82 40.9 1848.32 41.1 1843.12H42ZM42 1676.92H41.1C41.1 1671.72 39.2 1667.32 35.4 1663.72C31.6 1659.92 27.1 1658.02 21.9 1658.02C21.9 1658.02 21.3 1658.02 20.1 1658.02C18.9 1658.02 18.3 1658.02 18.3 1658.02L18 1655.02H42V1676.92ZM273.945 1680.82L356.445 1863.22H332.745L268.845 1707.52L273.945 1680.82ZM216.045 1843.12C213.845 1849.12 214.145 1853.82 216.945 1857.22C219.745 1860.42 222.945 1862.02 226.545 1862.02H228.945V1865.02H171.645V1862.02C171.645 1862.02 172.045 1862.02 172.845 1862.02C173.645 1862.02 174.045 1862.02 174.045 1862.02C178.245 1862.02 182.545 1860.62 186.945 1857.82C191.345 1854.82 195.145 1849.92 198.345 1843.12H216.045ZM273.945 1680.82L276.045 1701.52L207.345 1864.12H188.445L259.545 1711.72C259.545 1711.72 260.045 1710.52 261.045 1708.12C262.245 1705.72 263.545 1702.82 264.945 1699.42C266.545 1695.82 267.945 1692.32 269.145 1688.92C270.345 1685.52 271.045 1682.82 271.245 1680.82H273.945ZM309.345 1795.12V1804.12H229.845V1795.12H309.345ZM324.645 1843.12H347.445C350.445 1849.92 354.145 1854.82 358.545 1857.82C362.945 1860.62 367.145 1862.02 371.145 1862.02C371.145 1862.02 371.545 1862.02 372.345 1862.02C373.145 1862.02 373.545 1862.02 373.545 1862.02V1865.02H312.045V1862.02H314.445C317.845 1862.02 320.945 1860.42 323.745 1857.22C326.545 1853.82 326.845 1849.12 324.645 1843.12ZM442.27 1680.82C447.87 1680.82 452.77 1681.02 456.97 1681.42C461.17 1681.82 464.77 1682.32 467.77 1682.92C470.97 1683.32 473.67 1683.92 475.87 1684.72C478.27 1685.32 480.37 1685.92 482.17 1686.52L482.47 1716.22H478.87C478.87 1708.02 476.07 1701.62 470.47 1697.02C464.87 1692.22 456.17 1689.82 444.37 1689.82C434.37 1689.82 425.77 1692.62 418.57 1698.22C411.57 1703.62 408.17 1710.32 408.37 1718.32C408.37 1720.92 408.67 1723.62 409.27 1726.42C410.07 1729.02 411.27 1731.62 412.87 1734.22C414.67 1736.82 417.07 1739.42 420.07 1742.02L480.67 1788.82C485.27 1792.62 488.67 1797.52 490.87 1803.52C493.07 1809.32 494.27 1815.12 494.47 1820.92C494.67 1829.72 492.37 1837.82 487.57 1845.22C482.77 1852.62 476.27 1858.52 468.07 1862.92C460.07 1867.12 451.17 1869.22 441.37 1869.22C435.57 1869.22 429.27 1868.72 422.47 1867.72C415.87 1866.72 409.67 1865.22 403.87 1863.22C398.07 1861.02 393.27 1858.32 389.47 1855.12C388.87 1852.32 388.57 1848.82 388.57 1844.62C388.57 1840.22 388.87 1835.62 389.47 1830.82C390.27 1826.02 391.27 1821.72 392.47 1817.92H396.07C395.27 1826.92 396.57 1834.62 399.97 1841.02C403.37 1847.42 408.37 1852.32 414.97 1855.72C421.57 1858.92 429.27 1860.42 438.07 1860.22C450.47 1859.82 460.17 1856.72 467.17 1850.92C474.37 1844.92 477.97 1837.02 477.97 1827.22C477.97 1822.42 477.07 1818.12 475.27 1814.32C473.67 1810.32 470.97 1806.62 467.17 1803.22L407.17 1757.02C401.57 1752.22 397.77 1746.92 395.77 1741.12C393.77 1735.32 392.77 1729.82 392.77 1724.62C392.77 1716.42 394.97 1709.02 399.37 1702.42C403.77 1695.82 409.67 1690.62 417.07 1686.82C424.67 1682.82 433.07 1680.82 442.27 1680.82ZM481.87 1683.52L482.17 1688.92H460.87V1683.52H481.87ZM555.345 1685.32L610.845 1784.02L598.545 1794.52L529.245 1685.32H555.345ZM615.345 1787.62V1865.02H595.845V1787.62H615.345ZM665.745 1685.32H684.645L613.245 1793.92L602.145 1790.62L665.745 1685.32ZM654.345 1704.22C656.545 1700.22 656.645 1696.52 654.645 1693.12C652.645 1689.72 649.445 1688.02 645.045 1688.02C645.045 1688.02 644.445 1688.02 643.245 1688.02C642.045 1688.02 641.445 1688.02 641.445 1688.02V1685.02H704.145V1688.02H700.545C694.945 1688.02 689.645 1689.62 684.645 1692.82C679.845 1695.82 676.045 1699.32 673.245 1703.32L654.345 1704.22ZM565.845 1703.92L540.345 1703.02C537.145 1698.42 533.145 1694.82 528.345 1692.22C523.745 1689.42 518.545 1688.02 512.745 1688.02H509.145V1685.02H578.745V1688.02C578.745 1688.02 578.145 1688.02 576.945 1688.02C575.745 1688.02 575.145 1688.02 575.145 1688.02C570.745 1688.02 567.545 1689.82 565.545 1693.42C563.745 1696.82 563.845 1700.32 565.845 1703.92ZM596.745 1845.82V1865.02H574.845V1862.02C575.045 1862.02 575.645 1862.02 576.645 1862.02C577.845 1862.02 578.445 1862.02 578.445 1862.02C583.245 1862.02 587.245 1860.42 590.445 1857.22C593.845 1854.02 595.645 1850.22 595.845 1845.82H596.745ZM614.445 1845.82H615.345C615.545 1850.22 617.245 1854.02 620.445 1857.22C623.845 1860.42 627.945 1862.02 632.745 1862.02C632.745 1862.02 633.345 1862.02 634.545 1862.02C635.745 1862.02 636.345 1862.02 636.345 1862.02V1865.02H614.445V1845.82ZM748.439 1655.02H780.239C794.239 1655.02 806.039 1657.12 815.639 1661.32C825.439 1665.52 832.839 1671.42 837.839 1679.02C842.839 1686.42 845.339 1695.12 845.339 1705.12C845.339 1713.52 843.739 1720.92 840.539 1727.32C837.339 1733.52 833.239 1738.62 828.239 1742.62C823.239 1746.42 817.939 1749.12 812.339 1750.72C822.939 1752.32 832.039 1755.82 839.639 1761.22C847.439 1766.62 853.339 1773.42 857.339 1781.62C861.539 1789.62 863.639 1798.62 863.639 1808.62C863.639 1819.82 860.939 1829.72 855.539 1838.32C850.139 1846.72 842.139 1853.32 831.539 1858.12C821.139 1862.72 808.539 1865.02 793.739 1865.02H760.439C760.439 1865.02 760.439 1864.12 760.439 1862.32C760.639 1860.52 760.739 1858.72 760.739 1856.92C760.739 1855.12 760.739 1854.22 760.739 1854.22H792.539C802.939 1854.22 811.739 1852.42 818.939 1848.82C826.139 1845.02 831.639 1839.52 835.439 1832.32C839.239 1825.12 841.139 1816.52 841.139 1806.52C841.139 1795.32 838.939 1786.22 834.539 1779.22C830.339 1772.22 824.839 1766.92 818.039 1763.32C811.239 1759.72 803.839 1757.32 795.839 1756.12C788.039 1754.72 780.539 1754.02 773.339 1754.02V1751.32C777.939 1751.32 783.039 1750.82 788.639 1749.82C794.239 1748.82 799.639 1746.82 804.839 1743.82C810.039 1740.82 814.339 1736.42 817.739 1730.62C821.139 1724.62 822.839 1716.82 822.839 1707.22C822.839 1698.22 821.139 1690.52 817.739 1684.12C814.539 1677.72 809.639 1672.92 803.039 1669.72C796.639 1666.32 788.639 1664.62 779.039 1664.62H751.439C751.439 1664.42 751.139 1663.62 750.539 1662.22C750.139 1660.62 749.639 1659.02 749.039 1657.42C748.639 1655.82 748.439 1655.02 748.439 1655.02ZM763.139 1655.02V1865.02H743.639V1655.02H763.139ZM744.539 1843.12V1865.02H720.539L720.839 1862.02C721.239 1862.02 721.839 1862.02 722.639 1862.02C723.639 1862.02 724.239 1862.02 724.439 1862.02C729.639 1862.02 734.139 1860.22 737.939 1856.62C741.739 1852.82 743.639 1848.32 743.639 1843.12H744.539ZM744.539 1676.92H743.639C743.639 1671.72 741.739 1667.32 737.939 1663.72C734.139 1659.92 729.639 1658.02 724.439 1658.02C724.239 1658.02 723.639 1658.02 722.639 1658.02C721.839 1658.02 721.239 1658.02 720.839 1658.02L720.539 1655.02H744.539V1676.92ZM932.691 1685.02V1865.02H913.491V1685.02H932.691ZM1013.39 1855.72L1012.79 1865.02H932.091V1855.72H1013.39ZM999.291 1770.52V1779.52H932.091V1770.52H999.291ZM1013.09 1685.02V1694.32H932.091V1685.02H1013.09ZM1030.19 1822.12L1013.69 1865.02H968.091L978.291 1855.72C988.291 1855.72 996.291 1854.32 1002.29 1851.52C1008.49 1848.52 1013.49 1844.52 1017.29 1839.52C1021.09 1834.32 1024.39 1828.52 1027.19 1822.12H1030.19ZM999.291 1778.92V1796.02H995.991V1792.12C995.991 1788.72 994.991 1785.82 992.991 1783.42C990.991 1780.82 987.891 1779.52 983.691 1779.52V1778.92H999.291ZM999.291 1754.02V1771.12H983.691V1770.52C987.891 1770.52 990.991 1769.32 992.991 1766.92C994.991 1764.32 995.991 1761.32 995.991 1757.92V1754.02H999.291ZM1013.09 1693.42V1714.12H1009.79V1709.62C1009.79 1705.42 1008.39 1701.82 1005.59 1698.82C1002.99 1695.82 999.391 1694.32 994.791 1694.32V1693.42H1013.09ZM1013.09 1680.22V1688.02L978.891 1685.02C985.091 1685.02 991.691 1684.52 998.691 1683.52C1005.69 1682.32 1010.49 1681.22 1013.09 1680.22ZM914.091 1845.82L917.991 1865.02H891.891V1862.02C891.891 1862.02 892.591 1862.02 893.991 1862.02C895.391 1862.02 896.091 1862.02 896.091 1862.02C901.091 1862.02 905.191 1860.42 908.391 1857.22C911.591 1854.02 913.291 1850.22 913.491 1845.82H914.091ZM914.091 1703.92H913.491C913.291 1699.32 911.591 1695.52 908.391 1692.52C905.191 1689.52 901.091 1688.02 896.091 1688.02C896.091 1688.02 895.391 1688.02 893.991 1688.02C892.591 1688.02 891.891 1688.02 891.891 1688.02V1685.02H917.991L914.091 1703.92ZM1139.96 1680.82L1222.46 1863.22H1198.76L1134.86 1707.52L1139.96 1680.82ZM1082.06 1843.12C1079.86 1849.12 1080.16 1853.82 1082.96 1857.22C1085.76 1860.42 1088.96 1862.02 1092.56 1862.02H1094.96V1865.02H1037.66V1862.02C1037.66 1862.02 1038.06 1862.02 1038.86 1862.02C1039.66 1862.02 1040.06 1862.02 1040.06 1862.02C1044.26 1862.02 1048.56 1860.62 1052.96 1857.82C1057.36 1854.82 1061.16 1849.92 1064.36 1843.12H1082.06ZM1139.96 1680.82L1142.06 1701.52L1073.36 1864.12H1054.46L1125.56 1711.72C1125.56 1711.72 1126.06 1710.52 1127.06 1708.12C1128.26 1705.72 1129.56 1702.82 1130.96 1699.42C1132.56 1695.82 1133.96 1692.32 1135.16 1688.92C1136.36 1685.52 1137.06 1682.82 1137.26 1680.82H1139.96ZM1175.36 1795.12V1804.12H1095.86V1795.12H1175.36ZM1190.66 1843.12H1213.46C1216.46 1849.92 1220.16 1854.82 1224.56 1857.82C1228.96 1860.62 1233.16 1862.02 1237.16 1862.02C1237.16 1862.02 1237.56 1862.02 1238.36 1862.02C1239.16 1862.02 1239.56 1862.02 1239.56 1862.02V1865.02H1178.06V1862.02H1180.46C1183.86 1862.02 1186.96 1860.42 1189.76 1857.22C1192.56 1853.82 1192.86 1849.12 1190.66 1843.12ZM1276.17 1685.02V1798.42C1276.17 1817.82 1281.07 1833.12 1290.87 1844.32C1300.87 1855.52 1314.47 1861.12 1331.67 1861.12C1350.67 1861.12 1365.57 1855.82 1376.37 1845.22C1387.37 1834.62 1392.87 1820.12 1392.87 1801.72V1685.02H1406.67V1801.72C1406.67 1822.52 1399.97 1839.02 1386.57 1851.22C1373.37 1863.22 1355.17 1869.22 1331.97 1869.22C1308.97 1869.22 1290.67 1863.22 1277.07 1851.22C1263.67 1839.22 1256.97 1822.82 1256.97 1802.02V1685.02H1276.17ZM1257.57 1685.02V1700.92H1256.97C1256.77 1697.32 1255.27 1694.32 1252.47 1691.92C1249.87 1689.32 1246.57 1688.02 1242.57 1688.02C1242.57 1688.02 1241.77 1688.02 1240.17 1688.02C1238.77 1688.02 1238.07 1688.02 1238.07 1688.02V1685.02H1257.57ZM1295.07 1685.02V1688.02C1295.07 1688.02 1294.27 1688.02 1292.67 1688.02C1291.27 1688.02 1290.57 1688.02 1290.57 1688.02C1286.77 1688.02 1283.37 1689.32 1280.37 1691.92C1277.57 1694.32 1276.17 1697.32 1276.17 1700.92H1275.57V1685.02H1295.07ZM1393.47 1685.02V1700.92H1392.87C1392.87 1697.32 1391.47 1694.32 1388.67 1691.92C1385.87 1689.32 1382.47 1688.02 1378.47 1688.02C1378.47 1688.02 1377.67 1688.02 1376.07 1688.02C1374.67 1688.02 1373.97 1688.02 1373.97 1688.02V1685.02H1393.47ZM1425.57 1685.02V1688.02C1425.57 1688.02 1424.77 1688.02 1423.17 1688.02C1421.77 1688.02 1421.07 1688.02 1421.07 1688.02C1417.27 1688.02 1413.97 1689.32 1411.17 1691.92C1408.37 1694.32 1406.87 1697.32 1406.67 1700.92H1406.07V1685.02H1425.57ZM1532.73 1685.92V1865.02H1513.23V1685.92H1532.73ZM1605.33 1684.72V1693.72H1440.63V1684.72H1605.33ZM1605.33 1693.12V1713.82H1602.03V1709.02C1602.03 1704.82 1600.63 1701.32 1597.83 1698.52C1595.23 1695.52 1591.63 1693.92 1587.03 1693.72V1693.12H1605.33ZM1605.33 1679.92V1687.72L1571.73 1684.72C1575.73 1684.72 1579.93 1684.52 1584.33 1684.12C1588.93 1683.52 1593.13 1682.82 1596.93 1682.02C1600.73 1681.22 1603.53 1680.52 1605.33 1679.92ZM1513.83 1845.82V1865.02H1491.93V1862.02C1492.13 1862.02 1492.73 1862.02 1493.73 1862.02C1494.93 1862.02 1495.53 1862.02 1495.53 1862.02C1500.33 1862.02 1504.43 1860.42 1507.83 1857.22C1511.23 1854.02 1513.03 1850.22 1513.23 1845.82H1513.83ZM1531.83 1845.82H1532.73C1532.93 1850.22 1534.73 1854.02 1538.13 1857.22C1541.53 1860.42 1545.63 1862.02 1550.43 1862.02C1550.43 1862.02 1550.93 1862.02 1551.93 1862.02C1553.13 1862.02 1553.73 1862.02 1553.73 1862.02V1865.02H1531.83V1845.82ZM1458.93 1693.12V1693.72C1454.33 1693.92 1450.63 1695.52 1447.83 1698.52C1445.23 1701.32 1443.93 1704.82 1443.93 1709.02V1713.82H1440.63V1693.12H1458.93ZM1440.63 1679.92C1442.43 1680.52 1445.13 1681.22 1448.73 1682.02C1452.53 1682.82 1456.73 1683.52 1461.33 1684.12C1465.93 1684.52 1470.23 1684.72 1474.23 1684.72L1440.63 1687.72V1679.92ZM1657.2 1685.32L1712.7 1784.02L1700.4 1794.52L1631.1 1685.32H1657.2ZM1717.2 1787.62V1865.02H1697.7V1787.62H1717.2ZM1767.6 1685.32H1786.5L1715.1 1793.92L1704 1790.62L1767.6 1685.32ZM1756.2 1704.22C1758.4 1700.22 1758.5 1696.52 1756.5 1693.12C1754.5 1689.72 1751.3 1688.02 1746.9 1688.02C1746.9 1688.02 1746.3 1688.02 1745.1 1688.02C1743.9 1688.02 1743.3 1688.02 1743.3 1688.02V1685.02H1806V1688.02H1802.4C1796.8 1688.02 1791.5 1689.62 1786.5 1692.82C1781.7 1695.82 1777.9 1699.32 1775.1 1703.32L1756.2 1704.22ZM1667.7 1703.92L1642.2 1703.02C1639 1698.42 1635 1694.82 1630.2 1692.22C1625.6 1689.42 1620.4 1688.02 1614.6 1688.02H1611V1685.02H1680.6V1688.02C1680.6 1688.02 1680 1688.02 1678.8 1688.02C1677.6 1688.02 1677 1688.02 1677 1688.02C1672.6 1688.02 1669.4 1689.82 1667.4 1693.42C1665.6 1696.82 1665.7 1700.32 1667.7 1703.92ZM1698.6 1845.82V1865.02H1676.7V1862.02C1676.9 1862.02 1677.5 1862.02 1678.5 1862.02C1679.7 1862.02 1680.3 1862.02 1680.3 1862.02C1685.1 1862.02 1689.1 1860.42 1692.3 1857.22C1695.7 1854.02 1697.5 1850.22 1697.7 1845.82H1698.6ZM1716.3 1845.82H1717.2C1717.4 1850.22 1719.1 1854.02 1722.3 1857.22C1725.7 1860.42 1729.8 1862.02 1734.6 1862.02C1734.6 1862.02 1735.2 1862.02 1736.4 1862.02C1737.6 1862.02 1738.2 1862.02 1738.2 1862.02V1865.02H1716.3V1845.82ZM1924.09 1655.02C1945.49 1655.02 1964.19 1659.42 1980.19 1668.22C1996.39 1676.82 2008.99 1689.02 2017.99 1704.82C2027.19 1720.62 2031.79 1739.02 2031.79 1760.02C2031.79 1781.02 2027.19 1799.42 2017.99 1815.22C2008.99 1830.82 1996.39 1843.02 1980.19 1851.82C1964.19 1860.62 1945.49 1865.02 1924.09 1865.02H1859.89L1859.59 1856.02C1859.59 1856.02 1861.69 1856.02 1865.89 1856.02C1870.29 1856.02 1875.69 1856.02 1882.09 1856.02C1888.69 1856.02 1895.19 1856.02 1901.59 1856.02C1907.99 1856.02 1913.29 1856.02 1917.49 1856.02C1921.89 1856.02 1924.09 1856.02 1924.09 1856.02C1941.29 1856.02 1956.19 1852.02 1968.79 1844.02C1981.59 1836.02 1991.49 1824.82 1998.49 1810.42C2005.69 1796.02 2009.29 1779.22 2009.29 1760.02C2009.29 1740.82 2005.69 1724.02 1998.49 1709.62C1991.49 1695.22 1981.59 1684.02 1968.79 1676.02C1955.99 1668.02 1941.09 1664.02 1924.09 1664.02C1924.09 1664.02 1921.79 1664.02 1917.19 1664.02C1912.79 1664.02 1907.19 1664.02 1900.39 1664.02C1893.79 1664.02 1887.09 1664.02 1880.29 1664.02C1873.69 1664.02 1868.09 1664.02 1863.49 1664.02C1858.89 1664.02 1856.59 1664.02 1856.59 1664.02V1655.02H1924.09ZM1864.99 1655.02V1865.02H1845.49V1655.02H1864.99ZM1846.39 1843.12V1865.02H1822.39V1862.02C1822.39 1862.02 1822.99 1862.02 1824.19 1862.02C1825.59 1862.02 1826.29 1862.02 1826.29 1862.02C1831.49 1862.02 1835.89 1860.22 1839.49 1856.62C1843.29 1852.82 1845.29 1848.32 1845.49 1843.12H1846.39ZM1846.39 1676.92H1845.49C1845.49 1671.72 1843.59 1667.32 1839.79 1663.72C1835.99 1659.92 1831.49 1658.02 1826.29 1658.02C1826.29 1658.02 1825.69 1658.02 1824.49 1658.02C1823.29 1658.02 1822.69 1658.02 1822.69 1658.02L1822.39 1655.02H1846.39V1676.92ZM2202.39 1680.82C2202.39 1680.82 2202.39 1681.32 2202.39 1682.32C2202.39 1683.12 2202.39 1683.52 2202.39 1683.52L2082.39 1865.02H2061.39V1862.32L2173.29 1693.72H2065.89V1684.72H2168.49C2172.69 1684.72 2177.19 1684.52 2181.99 1684.12C2186.79 1683.72 2191.09 1683.22 2194.89 1682.62C2198.69 1682.02 2201.19 1681.42 2202.39 1680.82ZM2205.09 1856.02L2202.99 1865.02H2080.89V1856.02H2205.09ZM2221.29 1822.12L2205.09 1865.02H2160.09L2170.29 1856.02C2180.09 1855.82 2187.89 1854.32 2193.69 1851.52C2199.69 1848.72 2204.59 1844.82 2208.39 1839.82C2212.19 1834.62 2215.49 1828.72 2218.29 1822.12H2221.29ZM2065.89 1693.12H2084.19V1693.72C2079.79 1693.92 2076.19 1695.52 2073.39 1698.52C2070.59 1701.32 2069.19 1704.92 2069.19 1709.32V1713.82H2065.89V1693.12ZM2065.89 1679.92C2067.69 1680.52 2070.49 1681.22 2074.29 1682.02C2078.09 1682.62 2082.19 1683.22 2086.59 1683.82C2091.19 1684.22 2095.49 1684.52 2099.49 1684.72L2065.89 1687.72V1679.92Z" fill="#ED3F48"/>
<defs>
<linearGradient id="paint0_linear_427_475" x1="1038.97" y1="-54.2918" x2="1099.59" y2="450.398" gradientUnits="userSpaceOnUse">
<stop offset="0.1902" stop-color="#D64545"/>
<stop offset="0.956" stop-color="#FDA158"/>
<stop offset="1" stop-color="#FFA659"/>
</linearGradient>
<linearGradient id="paint1_linear_427_475" x1="1054.47" y1="513.225" x2="1026.52" y2="1291.66" gradientUnits="userSpaceOnUse">
<stop offset="0.1902" stop-color="#D64545"/>
<stop offset="0.956" stop-color="#FDA158"/>
<stop offset="1" stop-color="#FFA659"/>
</linearGradient>
<linearGradient id="paint2_linear_427_475" x1="1365.96" y1="1273.1" x2="1212.5" y2="470.359" gradientUnits="userSpaceOnUse">
<stop stop-color="#FF3E54"/>
<stop offset="0.6567" stop-color="#FF99A2"/>
<stop offset="1" stop-color="#FFCBCC"/>
</linearGradient>
<linearGradient id="paint3_linear_427_475" x1="1245.35" y1="311.508" x2="1383.57" y2="1462.31" gradientUnits="userSpaceOnUse">
<stop offset="0.1902" stop-color="#D66E45"/>
<stop offset="0.956" stop-color="#FDA158"/>
<stop offset="1" stop-color="#FFA659"/>
</linearGradient>
<linearGradient id="paint4_linear_427_475" x1="1662.66" y1="1086.66" x2="907.143" y2="1606.08" gradientUnits="userSpaceOnUse">
<stop stop-color="#FF3E54"/>
<stop offset="0.6567" stop-color="#FF99A2"/>
<stop offset="1" stop-color="#FFCBCC"/>
</linearGradient>
<linearGradient id="paint5_linear_427_475" x1="509.674" y1="1065.22" x2="1416.17" y2="470.539" gradientUnits="userSpaceOnUse">
<stop stop-color="#FF3E54"/>
<stop offset="0.6567" stop-color="#FF99A2"/>
<stop offset="1" stop-color="#FFCBCC"/>
</linearGradient>
<linearGradient id="paint6_linear_427_475" x1="1200.61" y1="1445.8" x2="464.487" y2="918.613" gradientUnits="userSpaceOnUse">
<stop stop-color="#D64545"/>
<stop offset="0.9456" stop-color="#FDA158"/>
<stop offset="1" stop-color="#FFA659"/>
</linearGradient>
<linearGradient id="paint7_linear_427_475" x1="1423.59" y1="557.556" x2="741.976" y2="1386.83" gradientUnits="userSpaceOnUse">
<stop stop-color="#7B728C"/>
<stop offset="1" stop-color="#FFA659" stop-opacity="0"/>
</linearGradient>
<linearGradient id="paint8_linear_427_475" x1="1520.96" y1="586.125" x2="899.577" y2="1342.12" gradientUnits="userSpaceOnUse">
<stop stop-color="#7B728C"/>
<stop offset="1" stop-color="#FFA659" stop-opacity="0"/>
</linearGradient>
<linearGradient id="paint9_linear_427_475" x1="950.152" y1="302.398" x2="1315.53" y2="650.18" gradientUnits="userSpaceOnUse">
<stop stop-color="#7B728C"/>
<stop offset="1" stop-color="#FFA659" stop-opacity="0"/>
</linearGradient>
<linearGradient id="paint10_linear_427_475" x1="1771.73" y1="869.246" x2="1155.42" y2="1619.06" gradientUnits="userSpaceOnUse">
<stop stop-color="#7B728C"/>
<stop offset="1" stop-color="#FFA659" stop-opacity="0"/>
</linearGradient>
<linearGradient id="paint11_linear_427_475" x1="597.208" y1="1672.86" x2="688.355" y2="608.597" gradientUnits="userSpaceOnUse">
<stop stop-color="#7B728C"/>
<stop offset="1" stop-color="#FFA659" stop-opacity="0"/>
</linearGradient>
<linearGradient id="paint12_linear_427_475" x1="874.469" y1="441.542" x2="857.431" y2="90.2917" gradientUnits="userSpaceOnUse">
<stop stop-color="#7B728C"/>
<stop offset="1" stop-color="#FFA659" stop-opacity="0"/>
</linearGradient>
<linearGradient id="paint13_linear_427_475" x1="1010.82" y1="325.053" x2="1009.51" y2="23.6063" gradientUnits="userSpaceOnUse">
<stop stop-color="#7B728C"/>
<stop offset="1" stop-color="#FFA659" stop-opacity="0"/>
</linearGradient>
<linearGradient id="paint14_linear_427_475" x1="1307.54" y1="441.542" x2="1324.58" y2="90.2917" gradientUnits="userSpaceOnUse">
<stop stop-color="#7B728C"/>
<stop offset="1" stop-color="#FFA659" stop-opacity="0"/>
</linearGradient>
<linearGradient id="paint15_linear_427_475" x1="1171.19" y1="325.053" x2="1172.5" y2="23.6063" gradientUnits="userSpaceOnUse">
<stop stop-color="#7B728C"/>
<stop offset="1" stop-color="#FFA659" stop-opacity="0"/>
</linearGradient>
</defs>
</svg>
